<mxfile host="Electron" agent="Mozilla/5.0 (Windows NT 10.0; Win64; x64) AppleWebKit/537.36 (KHTML, like Gecko) draw.io/24.7.5 Chrome/126.0.6478.183 Electron/31.3.0 Safari/537.36" version="24.7.5">
  <diagram name="第 1 页" id="MUYO5bvJp8h2161Trcz_">
    <mxGraphModel dx="1430" dy="830" grid="1" gridSize="10" guides="1" tooltips="1" connect="1" arrows="1" fold="1" page="1" pageScale="1" pageWidth="827" pageHeight="1169" math="0" shadow="0">
      <root>
        <mxCell id="0" />
        <mxCell id="1" parent="0" />
        <mxCell id="DW2_CxJmb-G6JmsQTJQ1-1" value="" style="rounded=0;whiteSpace=wrap;html=1;" vertex="1" parent="1">
          <mxGeometry x="430" y="370" width="290" height="50" as="geometry" />
        </mxCell>
        <mxCell id="DW2_CxJmb-G6JmsQTJQ1-2" value="BroadcastReceiver" style="text;html=1;align=center;verticalAlign=middle;whiteSpace=wrap;rounded=0;" vertex="1" parent="1">
          <mxGeometry x="545" y="340" width="60" height="30" as="geometry" />
        </mxCell>
        <mxCell id="DW2_CxJmb-G6JmsQTJQ1-4" value="onReceiver（）" style="text;html=1;align=center;verticalAlign=middle;whiteSpace=wrap;rounded=0;" vertex="1" parent="1">
          <mxGeometry x="525" y="380" width="100" height="30" as="geometry" />
        </mxCell>
        <mxCell id="DW2_CxJmb-G6JmsQTJQ1-5" value="" style="endArrow=classic;html=1;rounded=0;entryX=0;entryY=0.5;entryDx=0;entryDy=0;" edge="1" parent="1" target="DW2_CxJmb-G6JmsQTJQ1-4">
          <mxGeometry width="50" height="50" relative="1" as="geometry">
            <mxPoint x="380" y="270" as="sourcePoint" />
            <mxPoint x="500" y="590" as="targetPoint" />
            <Array as="points">
              <mxPoint x="380" y="395" />
            </Array>
          </mxGeometry>
        </mxCell>
        <mxCell id="DW2_CxJmb-G6JmsQTJQ1-6" value="" style="rounded=0;whiteSpace=wrap;html=1;" vertex="1" parent="1">
          <mxGeometry x="430" y="460" width="290" height="50" as="geometry" />
        </mxCell>
        <mxCell id="DW2_CxJmb-G6JmsQTJQ1-7" value="BroadcastReceiver" style="text;html=1;align=center;verticalAlign=middle;whiteSpace=wrap;rounded=0;" vertex="1" parent="1">
          <mxGeometry x="545" y="430" width="60" height="30" as="geometry" />
        </mxCell>
        <mxCell id="DW2_CxJmb-G6JmsQTJQ1-8" value="onReceiver（）" style="text;html=1;align=center;verticalAlign=middle;whiteSpace=wrap;rounded=0;" vertex="1" parent="1">
          <mxGeometry x="525" y="470" width="100" height="30" as="geometry" />
        </mxCell>
        <mxCell id="DW2_CxJmb-G6JmsQTJQ1-9" value="" style="rounded=0;whiteSpace=wrap;html=1;" vertex="1" parent="1">
          <mxGeometry x="430" y="550" width="290" height="50" as="geometry" />
        </mxCell>
        <mxCell id="DW2_CxJmb-G6JmsQTJQ1-10" value="BroadcastReceiver" style="text;html=1;align=center;verticalAlign=middle;whiteSpace=wrap;rounded=0;" vertex="1" parent="1">
          <mxGeometry x="545" y="520" width="60" height="30" as="geometry" />
        </mxCell>
        <mxCell id="DW2_CxJmb-G6JmsQTJQ1-11" value="onReceiver（）" style="text;html=1;align=center;verticalAlign=middle;whiteSpace=wrap;rounded=0;" vertex="1" parent="1">
          <mxGeometry x="525" y="560" width="100" height="30" as="geometry" />
        </mxCell>
        <mxCell id="DW2_CxJmb-G6JmsQTJQ1-12" value="" style="endArrow=classic;html=1;rounded=0;entryX=0;entryY=0.5;entryDx=0;entryDy=0;" edge="1" parent="1" target="DW2_CxJmb-G6JmsQTJQ1-8">
          <mxGeometry width="50" height="50" relative="1" as="geometry">
            <mxPoint x="380" y="390" as="sourcePoint" />
            <mxPoint x="500" y="590" as="targetPoint" />
            <Array as="points">
              <mxPoint x="380" y="485" />
            </Array>
          </mxGeometry>
        </mxCell>
        <mxCell id="DW2_CxJmb-G6JmsQTJQ1-13" value="" style="endArrow=classic;html=1;rounded=0;" edge="1" parent="1" target="DW2_CxJmb-G6JmsQTJQ1-11">
          <mxGeometry width="50" height="50" relative="1" as="geometry">
            <mxPoint x="380" y="480" as="sourcePoint" />
            <mxPoint x="440" y="520" as="targetPoint" />
            <Array as="points">
              <mxPoint x="380" y="575" />
            </Array>
          </mxGeometry>
        </mxCell>
        <mxCell id="DW2_CxJmb-G6JmsQTJQ1-14" value="intent" style="text;html=1;align=center;verticalAlign=middle;whiteSpace=wrap;rounded=0;" vertex="1" parent="1">
          <mxGeometry x="370" y="300" width="60" height="30" as="geometry" />
        </mxCell>
        <mxCell id="DW2_CxJmb-G6JmsQTJQ1-15" value="" style="rounded=0;whiteSpace=wrap;html=1;" vertex="1" parent="1">
          <mxGeometry x="170" y="820" width="290" height="50" as="geometry" />
        </mxCell>
        <mxCell id="DW2_CxJmb-G6JmsQTJQ1-16" value="BroadcastReceiver" style="text;html=1;align=center;verticalAlign=middle;whiteSpace=wrap;rounded=0;" vertex="1" parent="1">
          <mxGeometry x="285" y="790" width="60" height="30" as="geometry" />
        </mxCell>
        <mxCell id="DW2_CxJmb-G6JmsQTJQ1-17" value="onReceiver（）" style="text;html=1;align=center;verticalAlign=middle;whiteSpace=wrap;rounded=0;" vertex="1" parent="1">
          <mxGeometry x="265" y="830" width="100" height="30" as="geometry" />
        </mxCell>
        <mxCell id="DW2_CxJmb-G6JmsQTJQ1-18" value="" style="endArrow=classic;html=1;rounded=0;" edge="1" parent="1">
          <mxGeometry width="50" height="50" relative="1" as="geometry">
            <mxPoint x="410" y="780" as="sourcePoint" />
            <mxPoint x="410" y="819" as="targetPoint" />
            <Array as="points">
              <mxPoint x="410" y="810" />
            </Array>
          </mxGeometry>
        </mxCell>
        <mxCell id="DW2_CxJmb-G6JmsQTJQ1-19" value="" style="rounded=0;whiteSpace=wrap;html=1;" vertex="1" parent="1">
          <mxGeometry x="170" y="910" width="290" height="50" as="geometry" />
        </mxCell>
        <mxCell id="DW2_CxJmb-G6JmsQTJQ1-20" value="BroadcastReceiver" style="text;html=1;align=center;verticalAlign=middle;whiteSpace=wrap;rounded=0;" vertex="1" parent="1">
          <mxGeometry x="285" y="880" width="60" height="30" as="geometry" />
        </mxCell>
        <mxCell id="DW2_CxJmb-G6JmsQTJQ1-21" value="onReceiver（）" style="text;html=1;align=center;verticalAlign=middle;whiteSpace=wrap;rounded=0;" vertex="1" parent="1">
          <mxGeometry x="265" y="910" width="100" height="30" as="geometry" />
        </mxCell>
        <mxCell id="DW2_CxJmb-G6JmsQTJQ1-22" value="" style="rounded=0;whiteSpace=wrap;html=1;" vertex="1" parent="1">
          <mxGeometry x="170" y="1000" width="290" height="50" as="geometry" />
        </mxCell>
        <mxCell id="DW2_CxJmb-G6JmsQTJQ1-23" value="BroadcastReceiver" style="text;html=1;align=center;verticalAlign=middle;whiteSpace=wrap;rounded=0;" vertex="1" parent="1">
          <mxGeometry x="285" y="970" width="60" height="30" as="geometry" />
        </mxCell>
        <mxCell id="DW2_CxJmb-G6JmsQTJQ1-24" value="onReceiver（）" style="text;html=1;align=center;verticalAlign=middle;whiteSpace=wrap;rounded=0;" vertex="1" parent="1">
          <mxGeometry x="265" y="1010" width="100" height="30" as="geometry" />
        </mxCell>
        <mxCell id="DW2_CxJmb-G6JmsQTJQ1-25" value="" style="endArrow=classic;html=1;rounded=0;exitX=0.923;exitY=0.986;exitDx=0;exitDy=0;exitPerimeter=0;" edge="1" parent="1" source="DW2_CxJmb-G6JmsQTJQ1-15">
          <mxGeometry width="50" height="50" relative="1" as="geometry">
            <mxPoint x="120" y="840" as="sourcePoint" />
            <mxPoint x="438" y="909" as="targetPoint" />
            <Array as="points" />
          </mxGeometry>
        </mxCell>
        <mxCell id="DW2_CxJmb-G6JmsQTJQ1-26" value="" style="endArrow=classic;html=1;rounded=0;" edge="1" parent="1">
          <mxGeometry width="50" height="50" relative="1" as="geometry">
            <mxPoint x="422" y="960" as="sourcePoint" />
            <mxPoint x="422" y="1000" as="targetPoint" />
            <Array as="points" />
          </mxGeometry>
        </mxCell>
        <mxCell id="DW2_CxJmb-G6JmsQTJQ1-27" value="intent" style="text;html=1;align=center;verticalAlign=middle;whiteSpace=wrap;rounded=0;" vertex="1" parent="1">
          <mxGeometry x="400" y="780" width="60" height="30" as="geometry" />
        </mxCell>
        <mxCell id="DW2_CxJmb-G6JmsQTJQ1-28" value="Text" style="text;html=1;align=center;verticalAlign=middle;whiteSpace=wrap;rounded=0;" vertex="1" parent="1">
          <mxGeometry x="340" y="790" width="60" height="30" as="geometry" />
        </mxCell>
        <mxCell id="DW2_CxJmb-G6JmsQTJQ1-33" value="" style="group;fontColor=#FF0303;" vertex="1" connectable="0" parent="1">
          <mxGeometry x="417" y="970" width="10" height="10" as="geometry" />
        </mxCell>
        <mxCell id="DW2_CxJmb-G6JmsQTJQ1-31" value="" style="endArrow=none;html=1;rounded=0;fontColor=#FF0303;strokeColor=#FF3300;" edge="1" parent="DW2_CxJmb-G6JmsQTJQ1-33">
          <mxGeometry width="50" height="50" relative="1" as="geometry">
            <mxPoint y="10" as="sourcePoint" />
            <mxPoint x="10" as="targetPoint" />
          </mxGeometry>
        </mxCell>
        <mxCell id="DW2_CxJmb-G6JmsQTJQ1-32" value="" style="endArrow=none;html=1;rounded=0;fontColor=#FF0303;strokeColor=#FF3300;" edge="1" parent="DW2_CxJmb-G6JmsQTJQ1-33">
          <mxGeometry width="50" height="50" relative="1" as="geometry">
            <mxPoint as="sourcePoint" />
            <mxPoint x="10" y="10" as="targetPoint" />
          </mxGeometry>
        </mxCell>
        <mxCell id="DW2_CxJmb-G6JmsQTJQ1-37" value="abortBroadcast（）" style="text;html=1;align=center;verticalAlign=middle;whiteSpace=wrap;rounded=0;" vertex="1" parent="1">
          <mxGeometry x="252.5" y="930" width="125" height="30" as="geometry" />
        </mxCell>
        <mxCell id="DW2_CxJmb-G6JmsQTJQ1-38" value="200" style="text;html=1;align=center;verticalAlign=middle;whiteSpace=wrap;rounded=0;" vertex="1" parent="1">
          <mxGeometry x="170" y="830" width="60" height="30" as="geometry" />
        </mxCell>
        <mxCell id="DW2_CxJmb-G6JmsQTJQ1-39" value="100" style="text;html=1;align=center;verticalAlign=middle;whiteSpace=wrap;rounded=0;" vertex="1" parent="1">
          <mxGeometry x="170" y="920" width="60" height="30" as="geometry" />
        </mxCell>
        <mxCell id="DW2_CxJmb-G6JmsQTJQ1-40" value="50" style="text;html=1;align=center;verticalAlign=middle;whiteSpace=wrap;rounded=0;" vertex="1" parent="1">
          <mxGeometry x="170" y="1010" width="60" height="30" as="geometry" />
        </mxCell>
      </root>
    </mxGraphModel>
  </diagram>
</mxfile>
